<svg xmlns="http://www.w3.org/2000/svg" width="12" height="15" viewBox="0 0 12 15">
  <path id="delete_icon_lm" d="M6.5,1.75a.25.25,0,0,1,.25-.25h2.5a.25.25,0,0,1,.25.25V3h-3Zm4.5,0V3h2.25a.75.75,0,1,1,0,1.5H2.75a.75.75,0,0,1,0-1.5H5V1.75A1.751,1.751,0,0,1,6.75,0h2.5A1.751,1.751,0,0,1,11,1.75ZM4.5,6.675A.75.75,0,1,0,3,6.825l.66,6.6A1.75,1.75,0,0,0,5.405,15H10.6a1.748,1.748,0,0,0,1.741-1.576l.66-6.6A.75.75,0,0,0,11.5,6.675l-.66,6.6a.25.25,0,0,1-.249.225H5.405a.25.25,0,0,1-.249-.225l-.66-6.6Z" transform="translate(-2)" fill="#303030" fill-rule="evenodd"/>
</svg>
