<svg xmlns="http://www.w3.org/2000/svg" width="11.724" height="13.678" viewBox="0 0 11.724 13.678">
  <path id="forks_icon" d="M4.931,3.2A.733.733,0,1,1,4.2,2.465a.733.733,0,0,1,.733.733Zm0,2.073a2.2,2.2,0,1,0-1.465,0v.858a2.2,2.2,0,0,0,2.2,2.2H7.129v2.079a2.2,2.2,0,1,0,1.465,0V8.327H10.06a2.2,2.2,0,0,0,2.2-2.2V5.271a2.2,2.2,0,1,0-1.465,0v.858a.733.733,0,0,1-.733.733h-4.4a.733.733,0,0,1-.733-.733ZM8.595,12.48a.733.733,0,1,1-.733-.733A.733.733,0,0,1,8.595,12.48Zm2.931-8.549a.733.733,0,1,0-.733-.733A.733.733,0,0,0,11.526,3.931Z" transform="translate(-2 -1.001)" fill="#3d3d3d" fill-rule="evenodd"/>
</svg>
