<?xml version="1.0" encoding="utf-8"?>
<!-- Generator: Adobe Illustrator 26.2.1, SVG Export Plug-In . SVG Version: 6.00 Build 0)  -->
<svg version="1.1" id="Laag_1" xmlns="http://www.w3.org/2000/svg" xmlns:xlink="http://www.w3.org/1999/xlink" x="0px" y="0px"
	 viewBox="0 0 16 21" style="enable-background:new 0 0 16 21;" xml:space="preserve">
<style type="text/css">
	.st0{opacity:0.707;fill-rule:evenodd;clip-rule:evenodd;fill:#3D3D3D;enable-background:new    ;}
</style>
<path id="repo_icon" class="st0" d="M0,3.3C0,1.5,1.5,0,3.3,0l0,0H15c0.6,0,1,0.4,1,1v16.7c0,0.6-0.4,1-1,1h-3.3c-0.6,0-1-0.4-1-1
	s0.4-1,1-1H14V14H3.3C2.6,14,2,14.6,2,15.3c0,0.3,0.1,0.7,0.4,0.9c0.4,0.4,0.4,1,0,1.4s-1,0.4-1.4,0l0,0c-0.6-0.6-1-1.5-1-2.3
	C0,15.3,0,3.3,0,3.3z M14,2v10H3.3c-0.5,0-0.9,0.1-1.3,0.3v-9C2,2.6,2.6,2,3.3,2l0,0H14z M4,16.3v4.3C4,20.9,4.1,21,4.3,21
	c0.1,0,0.1,0,0.2-0.1l1.9-1.5c0.1-0.1,0.3-0.1,0.4,0l1.9,1.5C8.8,21,9.1,21,9.2,20.8c0-0.1,0.1-0.1,0.1-0.2v-4.3
	C9.3,16.2,9.2,16,9,16l0,0H4.3C4.2,16,4,16.2,4,16.3L4,16.3z"/>
</svg>
