<?xml version="1.0" encoding="utf-8"?>
<!-- Generator: Adobe Illustrator 26.2.1, SVG Export Plug-In . SVG Version: 6.00 Build 0)  -->
<svg version="1.1" id="Laag_1" xmlns="http://www.w3.org/2000/svg" xmlns:xlink="http://www.w3.org/1999/xlink" x="0px" y="0px"
	 viewBox="0 0 1052 181.7" style="enable-background:new 0 0 1052 181.7;" xml:space="preserve">
<style type="text/css">
	.st0{fill:#101010;}
	.st1{fill:#F3F3F3;}
	.st2{fill:#FFFFFF;}
	.st3{fill:none;stroke:#707070;}
	.st4{fill:none;stroke:#F3F3F3;}
	.st5{fill:#5D62FB;}
	.st6{fill:#FC6A6B;}
	.st7{fill:#FEDB5D;}
	.st8{fill:#1B1B1B;}
</style>
<g>
	<g>
		<path class="st8" d="M267.4,53.3c15.8,0,28.3,13.5,28.3,29.5c0,11.9-6.9,22.4-17,27l18.9,18.6h-20.3l-16.4-16.1h-5.8v16.1h-15.2
			V53.3H267.4z M255.1,97.1h12.3c7.1,0,13.1-6.1,13.1-14.3s-6-14.3-13.1-14.3h-12.3V97.1z"/>
		<path class="st8" d="M356.7,53.3v15.3h-34.3v15.2h33v14.1h-33v15.2h34.3v15.3h-49.6V53.3H356.7z"/>
		<path class="st8" d="M395.8,53.3c15.8,0,28.3,13.5,28.3,29.5c0,16-12.5,29.5-28.3,29.5h-12.3v16.1h-15.2V53.3H395.8z M383.5,97.1
			h12.3c7.1,0,13.1-6.1,13.1-14.3s-6-14.3-13.1-14.3h-12.3V97.1z"/>
		<path class="st8" d="M513.2,90.9c0,21.8-17.7,39.4-39.6,39.4c-21.9,0-39.6-17.6-39.6-39.4s17.7-39.4,39.6-39.4
			C495.5,51.5,513.2,69.1,513.2,90.9z M473.6,66.6c-13.4,0-24.2,10.9-24.2,24.2s10.9,24.2,24.2,24.2h0c13.4,0,24.2-10.9,24.2-24.2
			S487,66.6,473.6,66.6L473.6,66.6z"/>
		<path class="st8" d="M590.8,59.3l-4,5.9c-5.7-4.1-12.9-6.6-20.7-6.6c-16.9,0.2-33.7,11.9-34.3,32.2c0.2,17.8,14.5,31.8,34.3,32.2
			c7.8,0,15-2.5,20.7-6.6l4,5.9c-6.9,4.9-15.5,7.8-24.7,7.8c-24.9,0-41.4-17.8-41.4-39.4c0-21.5,16.5-39.4,41.4-39.4
			C575.4,51.5,583.9,54.4,590.8,59.3z"/>
		<path class="st8" d="M673.8,90.9c0,21.7-17.7,39.4-39.4,39.4c-21.7,0-39.4-17.7-39.4-39.4c0-21.7,17.7-39.4,39.4-39.4
			C656.2,51.5,673.8,69.1,673.8,90.9z M602.2,90.9c0,17.8,14.4,32.2,32.2,32.2c17.8,0,32.2-14.4,32.2-32.2s-14.4-32.2-32.2-32.2
			C616.6,58.6,602.2,73,602.2,90.9z"/>
		<path class="st8" d="M691.2,53.3l47.5,63.1V53.3h7.1v75.1h-7.2L691.1,65v63.4H684V53.3H691.2z"/>
		<path class="st8" d="M764.6,53.3l47.5,63.1V53.3h7.1v75.1H812L764.5,65v63.4h-7.1V53.3H764.6z"/>
		<path class="st8" d="M878.4,53.3v7.1h-40.6v26.9h39.3v7.1h-39.3v26.9h40.6v7.1h-47.7V53.3H878.4z"/>
		<path class="st8" d="M954.5,59.3l-4,5.9c-5.7-4.1-12.9-6.6-20.7-6.6c-16.9,0.2-33.7,11.9-34.3,32.2c0.2,17.8,14.5,31.8,34.3,32.2
			c7.8,0,15-2.5,20.7-6.6l4,5.9c-6.9,4.9-15.5,7.8-24.7,7.8c-24.9,0-41.4-17.8-41.4-39.4c0-21.5,16.5-39.4,41.4-39.4
			C939.1,51.5,947.6,54.4,954.5,59.3z"/>
		<path class="st8" d="M991.1,53.3h7.5h27.3v7.1h-27.4v68h-7.1v-68h-27.4v-7.1H991.1z"/>
	</g>
	<g>
		<g>
			<g>
				<g>
					<g>
						<g>
							<g>
								<g>
									<circle class="st5" cx="50.5" cy="58.9" r="24.4"/>
								</g>
							</g>
						</g>
					</g>
				</g>
				<g>
					<g>
						<g>
							<g>
								<circle class="st6" cx="158" cy="58.9" r="24.4"/>
							</g>
						</g>
					</g>
				</g>
			</g>
			<path class="st8" d="M152.6,95.8v1.9c0,15.6,0,25.9-3.9,31.2c-3.7,5-12.3,7.1-30.7,7.6c-1.2,0-10.7,0-13.8,0H104
				c-7.4,0-12.5,0-13.3,0c-18.4-0.6-27.1-2.8-30.9-7.9c-3.9-5.3-3.9-15.5-3.9-30.9v-1.9H45.2v1.9c0,17.6,0,29.2,6.1,37.4
				c6.1,8.2,16.7,11.5,39.1,12.2c0.9,0,5.5,0,13.6,0h0.3c0.1,0,12.4,0,14.1,0c19-0.5,32.1-2.7,39-11.9c6-8.1,6-19.8,6-37.6v-1.9
				H152.6z"/>
		</g>
	</g>
</g>
</svg>
