<?xml version="1.0" encoding="utf-8"?>
<!-- Generator: Adobe Illustrator 26.2.1, SVG Export Plug-In . SVG Version: 6.00 Build 0)  -->
<svg version="1.1" id="Laag_1" xmlns="http://www.w3.org/2000/svg" xmlns:xlink="http://www.w3.org/1999/xlink" x="0px" y="0px"
	 viewBox="0 0 1080 1080" style="enable-background:new 0 0 1080 1080;" xml:space="preserve">
<style type="text/css">
	.st0{fill:#010101;}
</style>
<g>
	<path class="st0" d="M765.1,335.5c-36.4,8.8-64.3,28.2-86.1,57.4c-41.1,55.1-82.5,110-123.7,165c-46.4,61.9-92.8,123.9-139.3,185.8
		c-50.5,67.3-118,100.9-202.2,100.9c-24,0-48.1,0.1-72.1,0c-28.2-0.1-49.8-20.9-49.9-47.8c-0.1-27.1,21.1-48.1,49.3-48.3
		c24.7-0.2,49.4-0.2,74.1,0c51.3,0.3,92.2-20.3,123-61.3c86.2-115,173-229.7,258.6-345.3c41.1-55.4,93.5-91.2,161.8-102.7
		c5.6-0.9,6.5-3.6,6.5-8.7c-0.2-37.4,0-74.8-0.2-112.2c-0.1-11.4,3.1-20.4,14.2-25c11.2-4.7,19.8-0.2,27.7,7.8
		c58.7,58.9,117.5,117.7,176.5,176.3c4.8,4.8,5.4,7.2,0.3,12.4C924.7,348.1,866,407,807.2,465.8c-7.9,7.9-16.3,12.8-27.7,8.2
		c-11.6-4.8-14.7-14.1-14.6-25.8c0.3-34.1,0.1-68.1,0.1-102.2C765.1,342.7,765.1,339.4,765.1,335.5z"/>
	<path class="st0" d="M765.1,744.6c0-38.4,0.2-75.4-0.1-112.5c-0.1-11.7,2.8-21.1,14.3-26c11.8-4.9,20.4,0.5,28.5,8.6
		c58.5,58.6,117,117.2,175.7,175.5c4.8,4.7,5.5,7.2,0.3,12.3c-59,58.6-117.7,117.4-176.4,176.2c-7.9,7.9-16.2,12.8-27.6,8.3
		c-10.2-4.1-14.6-11.7-14.6-25.8c0-37.1-0.2-74.1,0.2-111.2c0.1-6.5-2.1-8.4-8.1-9.4c-62.5-10.9-113.2-41.7-152-91.8
		c-17.8-22.9-50.8-73.2-68.4-96.2c-3-4-3.7-6.6-0.4-10.9c17.5-22.7,34.7-45.6,51.6-68.8c4.1-5.7,5.8-5,9.6,0.2
		c21.6,29.2,59.6,84.9,81.3,114.1C700.6,716.2,728.7,735.6,765.1,744.6z"/>
	<path class="st0" d="M185.8,235.5c35.5-1,70.8-0.3,105,10.6c48.4,15.4,88.5,42.8,119.6,83.1c18.3,23.7,57.4,69.4,75.6,93.2
		c3.2,4.2,3.1,6.8,0,11c-17.2,22.5-36.9,42.5-53.7,65.4c-3.9,5.4-5.8,6.1-10.2,0.2c-20.9-28.5-61.2-75.2-82.1-103.7
		c-31.5-42.8-73.4-64.4-126.8-63.5c-23.7,0.4-47.4,0.2-71.1,0c-28.8-0.1-50.4-21-50.2-48.4c0.1-26.9,21.6-47.5,49.9-47.8
		C156.4,235.4,171.1,235.5,185.8,235.5z"/>
</g>
</svg>
